<svg width="327" height="130" viewBox="0 0 327 130" fill="none" xmlns="http://www.w3.org/2000/svg">
<path d="M19.4201 29.9502C19.779 29.044 20.1379 28.1295 20.489 27.2235C20.6997 26.6898 20.9103 26.1479 21.121 25.6228C21.1677 25.5127 21.1677 25.3859 21.121 25.2758C19.5294 21.2448 17.9484 17.2083 16.3777 13.1662C16.3482 13.1 16.3222 13.0322 16.2996 12.9629C16.3532 12.9471 16.4098 12.9471 16.4634 12.9629H20.5045C20.6168 12.951 20.7198 13.0305 20.7465 13.1493L23.2273 20.0339C23.2273 20.0847 23.2273 20.1441 23.2975 20.2287L23.3678 20.0677C24.2103 17.7644 25.0477 15.4611 25.8799 13.1577C25.9344 13.0137 25.989 12.9629 26.1295 12.9629H30.2254L29.8977 13.8098L23.789 29.7638C23.756 29.8196 23.737 29.8839 23.7345 29.9501L19.4201 29.9502Z" fill="black"/>
<path d="M47.179 14.1483C47.3498 13.9308 47.5348 13.727 47.7329 13.5386C48.5473 12.858 49.5763 12.5536 50.5962 12.6917C51.5445 12.7413 52.4338 13.2056 53.0615 13.9789C53.5753 14.6468 53.91 15.4554 54.0288 16.3161C54.0989 16.7893 54.1302 17.2681 54.1225 17.7473C54.1225 20.22 54.1225 22.6927 54.1225 25.1654C54.1225 25.3347 54.0756 25.3687 53.9274 25.3687C52.6947 25.3687 51.4699 25.3687 50.2373 25.3687C50.0968 25.3687 50.0656 25.3264 50.0656 25.1823V18.6533C50.0764 18.333 50.0395 18.0126 49.9564 17.7049C49.8334 17.1501 49.396 16.7435 48.872 16.6973C48.3444 16.6026 47.8149 16.855 47.5223 17.3408C47.3391 17.6477 47.2316 18.0005 47.2102 18.3655C47.2102 18.6111 47.2102 18.8482 47.2102 19.0937C47.2102 21.1091 47.2102 23.1275 47.2102 25.1484C47.2102 25.3094 47.2102 25.3517 47.0152 25.3517C45.7903 25.3517 44.5576 25.3517 43.3251 25.3517C43.2002 25.3517 43.1612 25.3517 43.1612 25.1738C43.1612 19.3252 43.1612 13.4737 43.1612 7.61931C43.1612 7.48386 43.1612 7.44995 43.3172 7.44995H47.0229C47.1556 7.44995 47.1946 7.44995 47.1946 7.62784C47.1946 9.72797 47.1946 11.8619 47.1946 13.9196L47.179 14.1483Z" fill="black"/>
<path d="M41.8077 13.1323C41.8077 13.0223 41.8077 12.9375 41.6673 12.946H38.0317C37.9225 12.946 37.8913 12.946 37.8913 13.0984C37.8913 13.4118 37.8913 13.7336 37.8913 14.0385C37.7743 13.9198 37.6651 13.8098 37.548 13.7082C36.5998 12.8333 35.3398 12.4666 34.1155 12.7089C32.7104 12.899 31.4429 13.7189 30.6203 14.9699C29.4956 16.5932 29.0848 18.6709 29.4969 20.652C29.7454 22.3118 30.615 23.786 31.8998 24.7251C33.2294 25.733 34.9324 25.9614 36.448 25.3349C37.0173 25.1191 37.5142 24.724 37.8757 24.2002C37.8757 24.5559 37.8757 24.8608 37.8757 25.1656C37.8757 25.3011 37.8757 25.3519 38.0396 25.3519C39.241 25.3519 40.4425 25.3519 41.6438 25.3519C41.7764 25.3519 41.7921 25.3096 41.7921 25.174C41.7921 24.6744 41.7921 24.1833 41.7921 23.6837L41.8077 13.1323ZM35.6289 21.7021C34.3363 21.7021 33.2884 20.5646 33.2884 19.1616C33.2884 17.7585 34.3363 16.6211 35.6289 16.6211C36.9215 16.6211 37.9694 17.7585 37.9694 19.1616C37.9693 20.5646 36.9215 21.7021 35.6289 21.7021Z" fill="black"/>
<path d="M67.142 18.1969C66.9321 16.2193 65.8496 14.4758 64.2398 13.5224C63.0053 12.7621 61.5687 12.4814 60.1675 12.7264C58.5295 12.9268 57.0467 13.8716 56.0872 15.3262C55.234 16.6096 54.848 18.1899 55.0027 19.7635C55.0897 21.1681 55.6121 22.4993 56.485 23.5403C57.6619 24.9352 59.3381 25.7075 61.0801 25.6574C61.2362 25.6574 61.3922 25.6574 61.5404 25.6574C61.6886 25.6574 61.8993 25.6574 62.0787 25.598C65.3167 25.1348 67.5957 21.9103 67.169 18.3957C67.1609 18.3292 67.1519 18.2629 67.142 18.1969ZM61.0723 21.6604C59.7798 21.6604 58.7318 20.5229 58.7318 19.1199C58.7318 17.7168 59.7798 16.5794 61.0723 16.5794C62.3649 16.5794 63.4127 17.7167 63.4127 19.1199C63.4611 20.4705 62.4916 21.6079 61.2474 21.6604C61.189 21.6628 61.1307 21.6628 61.0723 21.6604Z" fill="black"/>
<path d="M80.1006 18.3912C79.9774 16.8636 79.3284 15.4425 78.2829 14.4111C76.8651 12.9717 74.904 12.3438 72.9935 12.7174C70.0135 13.1491 67.813 15.9504 67.8912 19.2125C67.8912 19.3311 67.8912 19.5258 67.8912 19.7207C67.8912 19.9154 67.8912 19.8984 67.8912 19.9831C68.0757 21.9874 69.1506 23.7674 70.77 24.7507C72.0274 25.5539 73.5043 25.8534 74.9439 25.5974C76.538 25.3881 77.9797 24.4676 78.9226 23.057C79.8558 21.7254 80.2777 20.0534 80.1006 18.3912ZM74.0311 21.66C72.7388 21.6876 71.6705 20.573 71.645 19.1701C71.6194 17.7674 72.6465 16.6077 73.9387 16.58C75.2311 16.5524 76.2995 17.6671 76.3249 19.0699C76.3257 19.1063 76.3255 19.1425 76.3248 19.1788C76.3422 20.5303 75.3469 21.6412 74.1019 21.6602C74.0783 21.6604 74.0547 21.6604 74.0311 21.66Z" fill="black"/>
<path d="M82.1099 18.6873L82.617 17.3495L86.3384 7.61112C86.3384 7.51795 86.4008 7.45023 86.5256 7.45023H91.2065C91.0114 7.95829 90.8243 8.46643 90.6291 8.96595C89.4122 12.1444 88.1977 15.3255 86.9858 18.5097C86.9591 18.6273 86.8545 18.7041 86.744 18.6874L82.1099 18.6873Z" fill="black"/>
<path d="M83.2672 25.5723C81.8283 25.5866 80.651 24.3318 80.6379 22.7699C80.6376 22.7444 80.6377 22.7186 80.6382 22.6931C80.6509 21.0703 81.8731 19.7659 83.3681 19.7797C83.3761 19.7797 83.3841 19.7798 83.3921 19.78C84.8225 19.761 85.9962 21.0042 86.0137 22.557C86.0139 22.5853 86.0139 22.6138 86.0135 22.6422C86.0137 24.2605 84.8053 25.5723 83.3144 25.5726C83.2987 25.5726 83.283 25.5725 83.2672 25.5723Z" fill="black"/>
<path d="M147.687 22.2219C147.634 22.3409 147.603 22.4704 147.596 22.6024C147.334 23.9033 146.497 24.9798 145.361 25.4783C144.61 25.852 143.798 26.0597 142.973 26.09C141.262 26.2162 139.547 25.8988 137.97 25.1642C137.651 24.999 137.347 24.8169 137.043 24.6354C137.043 24.6354 136.951 24.5197 137.043 24.437C137.514 23.412 137.985 22.3707 138.441 21.3457C138.441 21.2136 138.563 21.2465 138.639 21.3457C139.519 21.8716 140.476 22.2293 141.467 22.4039C141.941 22.4787 142.423 22.4787 142.897 22.4039C143.015 22.3906 143.128 22.3509 143.232 22.2881C143.424 22.1987 143.515 21.9557 143.432 21.7459C143.394 21.648 143.322 21.5696 143.232 21.528C142.989 21.3849 142.727 21.2844 142.456 21.2305C141.641 21.0516 140.839 20.8139 140.053 20.5195C139.5 20.3025 138.986 19.9839 138.533 19.5774C137.843 18.8961 137.479 17.9095 137.544 16.8997C137.536 15.1384 138.584 13.5771 140.129 13.048C140.958 12.7222 141.834 12.5654 142.714 12.5853C144.359 12.6148 145.976 13.0499 147.444 13.858C147.55 13.858 147.55 13.9572 147.444 14.0564C147.048 15.0815 146.638 16.0895 146.242 17.1146C146.242 17.2466 146.151 17.2634 146.029 17.2138C145.321 16.8077 144.563 16.5126 143.779 16.3376C143.281 16.2124 142.767 16.1789 142.258 16.2384C142.142 16.2478 142.031 16.2936 141.939 16.3707C141.771 16.4745 141.712 16.7064 141.807 16.8891C141.839 16.9489 141.884 16.9979 141.939 17.0322C142.152 17.1469 142.376 17.2358 142.608 17.2966C143.481 17.5229 144.339 17.8098 145.178 18.1558C145.727 18.3802 146.241 18.6982 146.699 19.0982C147.25 19.5854 147.609 20.2832 147.702 21.0484C147.702 21.0484 147.702 21.1311 147.702 21.1643L147.687 22.2219Z" fill="black"/>
<path d="M127.745 18.999C127.488 19.7867 127.246 20.6063 127.004 21.378C126.596 22.7282 126.173 24.0787 125.765 25.4288C125.742 25.5474 125.635 25.6256 125.523 25.6057H122.198C122.103 25.6259 122.009 25.562 121.986 25.4609L118.163 13.3081C118.163 13.1471 118.163 13.1149 118.284 13.1309H122.274C122.41 13.1309 122.47 13.1309 122.5 13.2919C123.075 15.3496 123.664 17.391 124.238 19.4327C124.238 19.4327 124.238 19.5291 124.238 19.5614L124.692 18.0825C125.191 16.4749 125.674 14.8673 126.203 13.2596C126.203 13.1309 126.203 13.0667 126.415 13.0667H129.256C129.393 13.0667 129.438 13.0667 129.483 13.2436C130.103 15.269 130.708 17.2947 131.327 19.3202C131.327 19.3202 131.327 19.4327 131.327 19.5131C131.377 19.4368 131.408 19.3483 131.418 19.256L133.141 13.2595C133.141 13.1147 133.232 13.0505 133.398 13.0505H137.252C137.448 13.0505 137.448 13.0505 137.388 13.2434L133.534 25.4608C133.54 25.5582 133.472 25.6432 133.38 25.6502C133.344 25.6529 133.307 25.6429 133.277 25.6215H129.982C129.861 25.6215 129.801 25.6215 129.77 25.4608L127.821 19.1916C127.82 19.1919 127.805 19.047 127.745 18.999Z" fill="black"/>
<path d="M98.0602 14.4557C98.2502 14.1419 98.4783 13.8572 98.738 13.6084C99.3082 13.0364 100.042 12.6915 100.817 12.6306C102.873 12.295 104.803 13.7902 105.171 16.0038C105.28 16.5388 105.331 17.0855 105.322 17.633V25.3897C105.322 25.5365 105.322 25.5853 105.156 25.5853H101.194C101.058 25.5853 101.028 25.5853 101.028 25.406V18.8064C101.037 18.4743 100.991 18.1434 100.892 17.8286C100.727 17.2634 100.25 16.8716 99.7022 16.8514C99.1672 16.7802 98.6449 17.0626 98.3763 17.568C98.1673 17.9414 98.0578 18.3701 98.0601 18.8064V25.4711C98.0601 25.618 98.0601 25.6504 97.9094 25.6504H93.9322C93.7965 25.6504 93.7664 25.6504 93.7664 25.4711C93.7664 21.3759 93.7664 17.2749 93.7664 13.1685C93.7664 13.0217 93.7664 13.0053 93.9322 13.0053H97.8945C98.03 13.0053 98.075 13.0053 98.0602 13.1849V14.4557Z" fill="black"/>
<path d="M118.309 17.4683C117.943 15.5878 116.769 14.0087 115.147 13.2171C113.989 12.6397 112.697 12.4511 111.438 12.6756C109.46 12.9585 107.746 14.2966 106.878 16.2372C106.187 17.7184 106.004 19.4161 106.361 21.0297C106.693 23.2229 108.148 25.0231 110.116 25.6743C111.738 26.2646 113.495 26.2646 115.117 25.6743C116.346 25.2271 117.39 24.3266 118.066 23.1302C118.066 23.0483 118.157 22.9991 118.066 22.9333L114.615 21.5222C114.563 21.4631 114.477 21.4612 114.422 21.5176C114.42 21.5192 114.419 21.5207 114.418 21.5222C113.841 22.3116 112.885 22.6539 111.986 22.392C111.218 22.2283 110.617 21.5801 110.466 20.7507C110.466 20.6028 110.466 20.5373 110.618 20.5373H118.309C118.568 20.5373 118.568 20.5373 118.583 20.2582C118.632 19.3184 118.54 18.376 118.309 17.4683ZM114.174 17.8623H110.557C110.405 17.8623 110.39 17.8623 110.42 17.6814C110.576 16.8796 111.187 16.2729 111.94 16.1718C112.425 16.0764 112.926 16.1511 113.369 16.3851C113.848 16.6215 114.192 17.0914 114.296 17.6489C114.387 17.7474 114.387 17.8295 114.205 17.8295L114.174 17.8623Z" fill="black"/>
<path d="M248.918 14.8672C248.918 12.7666 248.959 10.8109 249.081 9L242.825 10.0503V10.5573L243.439 10.6298C243.888 10.666 244.175 10.8109 244.338 11.0282C244.502 11.2817 244.624 11.6439 244.706 12.1871C244.788 13.2374 244.87 15.6278 244.829 19.3944C244.829 23.1247 244.788 25.4789 244.706 26.3843C246.955 26.8189 248.713 27 250.022 27C252.475 27 254.397 26.3843 255.787 25.1167C257.177 23.8853 257.913 22.1469 257.913 20.0101C257.913 18.3078 257.382 16.8954 256.319 15.7726C255.255 14.6499 253.906 14.1066 252.311 14.1066C251.248 14.1066 250.144 14.3602 248.918 14.8672ZM249.04 26.0221C248.959 24.8632 248.877 21.3863 248.877 15.7002C249.245 15.5915 249.735 15.5191 250.349 15.5191C251.33 15.5191 252.107 15.9537 252.679 16.8592C253.252 17.7646 253.538 18.8511 253.538 20.2274C253.538 21.9296 253.211 23.3058 252.557 24.4648C251.903 25.5875 251.085 26.167 250.063 26.167C249.735 26.0946 249.408 26.0583 249.04 26.0221ZM219.355 9.36217H203V10.0865L203.859 10.159C204.513 10.2676 204.963 10.4849 205.249 10.8109C205.535 11.173 205.699 11.7525 205.74 12.5493C206.067 16.4608 206.067 20.1187 205.74 23.4869C205.658 24.2837 205.494 24.8632 205.249 25.2254C204.963 25.5875 204.513 25.8048 203.859 25.8773L203 25.9859V26.7103H213.549V25.9859L212.445 25.9135C211.791 25.841 211.341 25.5875 211.055 25.2616C210.769 24.8994 210.605 24.3199 210.564 23.5231C210.442 22.0744 210.36 20.4085 210.36 18.5614L212.568 18.5976C213.754 18.6338 214.571 19.4306 214.98 21.0241H215.798V15.1207H214.98C214.571 16.6781 213.795 17.4748 212.568 17.5111L210.36 17.5473C210.36 14.2877 210.442 11.9698 210.564 10.5573H213.795C216.084 10.5573 217.638 11.8612 218.538 14.4688L219.519 14.2153L219.355 9.36217ZM217.434 20.5171C217.434 22.4004 218.047 23.9577 219.233 25.1891C220.418 26.4205 222.177 27 224.385 27C226.593 27 228.392 26.3843 229.7 25.1167C231.009 23.8853 231.622 22.328 231.622 20.4447C231.622 18.5614 231.009 17.004 229.823 15.7726C228.637 14.5412 226.879 13.9618 224.671 13.9618C222.463 13.9618 220.664 14.5775 219.355 15.8451C218.047 17.0765 217.434 18.6338 217.434 20.5171ZM226.552 16.3883C227.042 17.4386 227.247 18.8149 227.247 20.4809C227.247 24.3199 226.347 26.2032 224.589 26.2032C223.69 26.2032 222.994 25.66 222.504 24.5734C222.013 23.4869 221.809 22.1107 221.809 20.4809C221.809 16.6781 222.708 14.7948 224.466 14.7948C225.366 14.7586 226.061 15.3018 226.552 16.3883ZM261.102 25.1891C262.452 26.3843 264.169 27 266.214 27C267.481 27 268.585 26.7827 269.566 26.3119C270.548 25.8773 271.325 25.334 271.856 24.6821L271.447 24.2475C270.548 24.8632 269.525 25.1529 268.34 25.1529C266.704 25.1529 265.437 24.6821 264.578 23.7042C263.678 22.7264 263.27 21.495 263.351 19.9014H272.101C272.101 18.163 271.611 16.7505 270.589 15.6278C269.566 14.5412 268.135 13.998 266.295 13.998C264.006 13.998 262.247 14.6499 260.98 15.9175C259.712 17.1851 259.099 18.7425 259.099 20.5895C259.099 22.4728 259.753 23.994 261.102 25.1891ZM264.128 16.0986C264.578 15.2294 265.15 14.7948 265.927 14.7948C267.154 14.7948 267.767 16.171 267.767 18.9598L263.433 19.0322C263.474 17.9457 263.678 16.9678 264.128 16.0986ZM283.1 14.6499C281.996 14.2153 280.606 13.9618 278.93 13.9618C277.213 13.9618 275.863 14.3602 274.841 15.1207C273.819 15.8813 273.287 16.8229 273.287 17.9457C273.287 18.9235 273.614 19.6841 274.228 20.2274C274.841 20.7706 275.822 21.2414 277.09 21.6398C278.235 22.002 279.052 22.3642 279.461 22.6901C279.87 23.0523 280.116 23.4507 280.116 23.994C280.116 24.501 279.911 24.9718 279.461 25.334C279.052 25.7324 278.48 25.9135 277.744 25.9135C275.945 25.9135 274.596 24.7545 273.655 22.4366L272.96 22.6177L273.124 26.2394C274.596 26.7465 276.231 27 278.03 27C279.911 27 281.342 26.6378 282.405 25.8773C283.468 25.1529 284 24.1026 284 22.7988C284 21.9296 283.755 21.2052 283.223 20.662C282.692 20.1187 281.833 19.6479 280.606 19.2133C279.257 18.7787 278.317 18.3803 277.826 18.0181C277.335 17.6559 277.09 17.2213 277.09 16.6781C277.09 16.1348 277.253 15.7002 277.621 15.338C277.989 14.9759 278.439 14.831 279.012 14.831C280.647 14.831 281.833 15.8813 282.569 17.9457L283.264 17.7646L283.1 14.6499ZM243.766 14.3239C243.193 14.0704 242.58 13.9618 241.885 13.9618C241.19 13.9618 240.495 14.2153 239.718 14.7223C238.941 15.2294 238.368 15.9175 237.919 16.8592L237.96 13.9618L231.745 15.0483V15.5553L232.358 15.5915C233.135 15.664 233.585 16.2072 233.666 17.1851C233.912 19.4306 233.912 21.8209 233.666 24.3561C233.585 25.334 233.135 25.841 232.358 25.9497L231.745 26.0221V26.7103H240.413V26.0221L239.309 25.9497C238.532 25.8773 238.082 25.334 238.001 24.3561C237.755 22.2555 237.714 20.0101 237.919 17.6922C238.164 17.33 238.696 17.1127 239.513 17.0402C240.331 16.9678 241.272 17.1851 242.253 17.6922L243.766 14.3239Z" fill="black"/>
<path d="M90.2357 53.8005C91.1681 53.8011 92.1001 53.7994 93.0326 53.8011C93.3893 54.9156 93.752 56.0278 94.1088 57.1423C94.1366 57.2271 94.1699 57.3103 94.2065 57.3928C94.554 56.1986 94.8785 54.9976 95.2171 53.8011C96.1786 53.7999 97.14 53.8005 98.1015 53.8005C98.102 56.0061 98.1026 58.2118 98.1009 60.4174C97.4072 60.418 96.7134 60.4168 96.0196 60.418C96.0327 59.1651 96.0743 57.9128 96.0726 56.6605C95.9923 56.7704 95.9617 56.9065 95.9218 57.0352C95.5657 58.1628 95.2046 59.2881 94.85 60.4163C94.3464 60.4191 93.8422 60.4168 93.3385 60.4174C92.9949 59.3206 92.654 58.2232 92.311 57.1263C92.2591 56.9657 92.223 56.7972 92.1405 56.6497C92.1514 57.9054 92.2033 59.1611 92.2301 60.4168C91.5653 60.418 90.8999 60.4174 90.2351 60.4174C90.2357 58.2118 90.2346 56.0061 90.2357 53.8005Z" fill="black"/>
<path d="M101.043 53.8003C101.8 53.802 102.558 53.7997 103.315 53.8014C104.139 56.0071 104.966 58.2116 105.789 60.4178C105.014 60.4178 104.238 60.4183 103.463 60.4178C103.354 60.0949 103.239 59.7748 103.136 59.4508C102.464 59.44 101.791 59.4496 101.119 59.4456C101.012 59.7697 100.91 60.0949 100.803 60.4183C100.049 60.4172 99.2946 60.4183 98.5408 60.4178C99.3744 58.2116 100.207 56.0053 101.043 53.8003ZM101.629 57.744C101.971 57.7451 102.313 57.7451 102.655 57.744C102.486 57.203 102.318 56.6614 102.148 56.121C101.971 56.6608 101.803 57.203 101.629 57.744Z" fill="black"/>
<path d="M106.232 53.8007C106.92 53.8007 107.608 53.8007 108.297 53.8007C108.299 54.618 108.295 55.4346 108.299 56.2518C108.879 55.442 109.424 54.5986 110.019 53.8053C110.853 53.7945 111.686 53.8042 112.52 53.8007C111.727 54.8122 110.928 55.819 110.136 56.831C110.971 58.0252 111.803 59.2212 112.636 60.4177C111.762 60.4182 110.888 60.4177 110.014 60.4177C109.443 59.535 108.878 58.6483 108.306 57.7667C108.301 58.65 108.305 59.5338 108.304 60.4177C107.613 60.4182 106.923 60.4177 106.232 60.4177C106.231 58.212 106.231 56.0064 106.232 53.8007Z" fill="black"/>
<path d="M113.072 53.8008C114.528 53.8008 115.985 53.8008 117.442 53.8008C117.442 54.4182 117.442 55.0349 117.442 55.6517C116.655 55.6522 115.869 55.6517 115.083 55.6522C115.082 55.8419 115.082 56.0315 115.083 56.2212C115.821 56.2217 116.56 56.2206 117.298 56.2217C117.298 56.7981 117.298 57.3744 117.298 57.9507C116.56 57.9519 115.821 57.9507 115.083 57.9513C115.082 58.1563 115.082 58.3613 115.083 58.5669C115.921 58.5675 116.758 58.5663 117.596 58.5669C117.595 59.1842 117.596 59.801 117.595 60.4183C116.087 60.4178 114.58 60.4178 113.072 60.4178C113.071 58.2121 113.071 56.0065 113.072 53.8008Z" fill="black"/>
<path d="M98.2781 61.6638C99.5329 61.1347 101.063 61.4229 102.058 62.3819C101.617 62.8535 101.172 63.3216 100.731 63.7943C100.445 63.4429 100.012 63.2191 99.5673 63.2265C99.4341 63.235 99.2926 63.2584 99.185 63.3444C99.0659 63.4543 99.1036 63.6826 99.2543 63.739C99.829 64.0038 100.467 64.1194 101.002 64.4759C101.406 64.7305 101.751 65.1303 101.849 65.6218C101.965 66.2579 101.818 66.9527 101.413 67.4504C100.939 68.0506 100.19 68.3422 99.4608 68.3855C98.4322 68.4402 97.379 68.0911 96.5896 67.398C97.0233 66.9054 97.4582 66.4139 97.8925 65.9225C98.2503 66.2903 98.7294 66.5626 99.2418 66.5671C99.3827 66.5643 99.5362 66.5455 99.6537 66.4549C99.7886 66.3331 99.7356 66.0922 99.5821 66.0147C99.1762 65.7704 98.7086 65.6776 98.2803 65.4874C97.8925 65.3211 97.5095 65.0904 97.2642 64.7254C96.9561 64.2829 96.9146 63.6957 97.0141 63.1735C97.149 62.4844 97.6652 61.928 98.2781 61.6638Z" fill="black"/>
<path d="M90.1472 61.5853C90.8596 61.5853 91.5724 61.5848 92.2848 61.5859C92.2837 62.8576 92.2859 64.1287 92.2837 65.4004C92.2815 65.7238 92.3995 66.0912 92.6901 66.2506C93.0512 66.4727 93.5844 66.3805 93.8144 66.0017C93.9203 65.8223 93.9695 65.6111 93.9679 65.4015C93.9668 64.1298 93.9684 62.8576 93.9673 61.5859C94.6764 61.5848 95.3855 61.5853 96.0951 61.5853C96.094 62.9515 96.0962 64.3178 96.094 65.6834C96.0847 66.4414 95.7881 67.2142 95.2145 67.6965C94.5781 68.2501 93.7166 68.4244 92.907 68.3919C92.1324 68.3663 91.3255 68.1054 90.7885 67.4972C90.3406 66.9995 90.1505 66.3019 90.1472 65.631C90.1472 64.2824 90.1472 62.9339 90.1472 61.5853Z" fill="black"/>
<path d="M102.716 61.5853C104.173 61.5853 105.63 61.5848 107.086 61.5859C107.085 62.2038 107.086 62.8217 107.086 63.4396C106.301 63.4402 105.516 63.4396 104.731 63.4396C104.73 63.6281 104.729 63.8166 104.731 64.0051C105.468 64.0062 106.205 64.0051 106.943 64.0057C106.943 64.5837 106.943 65.1612 106.943 65.7392C106.205 65.7398 105.468 65.7381 104.73 65.7398C104.73 65.9437 104.73 66.147 104.73 66.3508C105.567 66.352 106.403 66.3503 107.239 66.3514C107.24 66.9693 107.24 67.5872 107.239 68.2057C105.732 68.2062 104.224 68.2057 102.716 68.2057C102.715 65.9989 102.716 63.7921 102.716 61.5853Z" fill="black"/>
<path d="M92.7632 69.2479C93.7973 69.0748 94.927 69.2667 95.7765 69.933C96.3856 70.4023 96.8002 71.1221 96.9422 71.8955C97.105 72.7873 96.9826 73.752 96.5249 74.5334C96.1283 75.2162 95.4809 75.7265 94.7549 75.9691C93.8667 76.2703 92.8796 76.247 92.0066 75.8996C91.2932 75.612 90.6808 75.0539 90.3306 74.3432C89.9127 73.498 89.8406 72.4821 90.0941 71.5732C90.3077 70.8021 90.8124 70.1255 91.4778 69.7212C91.87 69.4746 92.3131 69.3277 92.7632 69.2479ZM93.2581 71.2457C92.8271 71.3123 92.4475 71.6404 92.3131 72.0737C92.1055 72.7008 92.2442 73.5043 92.7861 73.9024C93.2445 74.2344 93.9246 74.182 94.319 73.764C94.779 73.2794 94.8467 72.4747 94.555 71.8795C94.3135 71.4035 93.7612 71.1483 93.2581 71.2457Z" fill="black"/>
<path d="M97.8992 75.9929C97.9003 73.7861 97.8981 71.5793 97.9003 69.3731C99.3293 69.3731 100.758 69.3725 102.188 69.3731C102.188 69.9938 102.188 70.614 102.188 71.2348C101.456 71.2353 100.725 71.2336 99.9925 71.2353C99.9925 71.4648 99.9925 71.6944 99.9925 71.9244C100.638 71.9261 101.283 71.9239 101.928 71.9256C101.933 72.5309 101.919 73.1369 101.936 73.7422C101.292 73.7633 100.647 73.7451 100.003 73.7514C100.002 74.4985 100.003 75.2457 100.003 75.9934C99.3015 75.9934 98.6 75.994 97.8992 75.9929Z" fill="black"/>
<path d="M102.707 74.6935C104.202 74.6929 105.698 74.6935 107.193 74.6929C107.193 75.1878 107.193 75.6827 107.193 76.1776C105.698 76.1776 104.202 76.177 102.707 76.1776C102.706 75.6827 102.707 75.1883 102.707 74.6935Z" fill="black"/>
<path d="M81.78 76.2027C83.8646 74.0284 85.9498 71.8547 88.0354 69.6815C88.036 71.8552 88.036 74.0295 88.0354 76.2033C87.1415 76.203 86.2476 76.2031 85.3537 76.2032C84.1625 76.2033 82.9713 76.2034 81.78 76.2027Z" fill="black"/>
<path d="M74.5776 61.7489C73.8452 61.7483 73.1127 61.7476 72.3801 61.749V67.9166C74.2604 67.9171 76.1407 67.9177 78.0204 67.9166C78.0194 67.1251 78.0199 66.3337 78.0205 65.5423C78.0214 64.2762 78.0223 63.0102 78.0166 61.7444C76.8703 61.751 75.724 61.75 74.5776 61.7489Z" fill="black"/>
<path fill-rule="evenodd" clip-rule="evenodd" d="M53.8394 53.8372C53.7782 53.8344 53.7285 53.8583 53.6902 53.9101C51.5997 56.0928 49.5075 58.2734 47.4152 60.454C46.6103 61.2929 45.8054 62.1317 45.0006 62.9708C45.0001 67.3615 44.9995 71.7523 45.0006 76.1431C49.7594 76.1424 54.5182 76.1427 59.277 76.1429C65.9404 76.1433 72.6038 76.1437 79.2674 76.1414C79.9061 75.4752 80.5446 74.8089 81.1832 74.1426C83.4542 71.7729 85.7254 69.403 88.0018 67.0386C88.0028 64.3978 88.0026 61.7569 88.0024 59.1159C88.0023 57.3562 88.0022 55.5965 88.0024 53.8367C85.1547 53.8367 82.307 53.8366 79.4593 53.8366C70.9193 53.8365 62.3793 53.8364 53.8394 53.8372ZM62.9587 64.7724C62.9585 63.5389 62.9583 62.3054 62.96 61.0721C62.9529 60.8238 63.1261 60.5891 63.355 60.5265C63.5855 60.4678 63.8663 60.5117 64.0127 60.7241C64.1268 60.8696 64.1238 61.0575 64.1209 61.2375C64.1202 61.2781 64.1196 61.3182 64.1203 61.3574C64.1195 62.9976 64.1196 64.6381 64.1197 66.2785C64.1197 66.8246 64.1197 67.3707 64.1197 67.9168C65.9121 67.9174 67.7044 67.9174 69.4967 67.9168C69.4973 66.7761 69.4973 65.6353 69.4973 64.4944C69.4973 63.3535 69.4973 62.2125 69.4978 61.0715C69.4842 60.7537 69.771 60.4815 70.0714 60.5049C70.3746 60.4724 70.6729 60.7435 70.6548 61.0669C70.6553 62.0452 70.6551 63.0235 70.6549 64.0018C70.6546 65.3991 70.6543 66.7964 70.6559 68.1936C70.6456 68.6605 70.2479 69.074 69.7994 69.0831C68.3697 69.0807 66.9401 69.0811 65.5104 69.0816C64.9385 69.0818 64.3666 69.082 63.7947 69.082C63.3517 69.0649 62.9627 68.652 62.9578 68.189C62.9591 67.0501 62.9589 65.9113 62.9587 64.7724ZM59.3976 63.0973C59.9558 62.3706 60.514 61.644 61.0732 60.9183C61.237 60.6991 61.502 60.576 61.7669 60.584C61.8068 60.5859 61.8485 60.5846 61.8907 60.5832C62.0225 60.579 62.1592 60.5745 62.2619 60.6694C62.4094 60.8016 62.3984 61.0533 62.2679 61.1945C62.0046 61.5372 61.7414 61.8799 61.4782 62.2226C60.551 63.4297 59.6237 64.6369 58.6958 65.8438C58.5297 66.05 58.244 66.1844 57.9889 66.091C57.8354 66.0426 57.7015 65.9407 57.6016 65.8108C56.8601 64.8747 56.117 63.9394 55.3741 63.0043C55.2429 62.8391 55.1117 62.674 54.9805 62.5089C54.98 63.4307 54.9801 64.3527 54.9802 65.2747C54.9803 66.381 54.9803 67.4875 54.9795 68.5939C54.9898 68.8724 54.768 69.1298 54.5031 69.1554C54.1901 69.2243 53.8279 68.996 53.8246 68.6435C53.8216 67.123 53.8221 65.6026 53.8225 64.0823C53.8228 63.0987 53.8231 62.1153 53.8224 61.1319C53.8148 60.8824 53.9967 60.6489 54.2294 60.5971C54.6009 60.5339 54.9953 60.6973 55.2291 61.0049C55.7875 61.71 56.3452 62.4159 56.9029 63.1217C57.3212 63.6512 57.7396 64.1808 58.1582 64.71C58.5717 64.1726 58.9847 63.635 59.3976 63.0973ZM71.2208 61.4673C71.2301 61.0265 71.5852 60.6336 72.0047 60.588C73.1412 60.5831 74.2778 60.5838 75.4146 60.5845C76.3842 60.5851 77.3538 60.5858 78.3235 60.5829C78.7747 60.5869 79.1767 61.0037 79.1838 61.4747C79.1833 63.5995 79.1833 65.7242 79.1838 67.849C79.1832 67.8946 79.184 67.9405 79.1848 67.9867C79.1876 68.1494 79.1904 68.314 79.1325 68.4675C79.015 68.8172 78.6807 69.078 78.3235 69.0825C76.2465 69.0808 74.169 69.0797 72.0921 69.0831C71.6376 69.086 71.2279 68.6685 71.2202 68.1947C71.2219 65.952 71.2213 63.7094 71.2208 61.4673ZM61.5426 63.2359C61.646 63.0958 61.7507 62.9538 61.8991 62.8648C62.1302 62.7447 62.382 62.985 62.3651 63.2327C62.3698 64.4072 62.369 65.5816 62.3683 66.756C62.3679 67.3687 62.3675 67.9813 62.3678 68.5939C62.3826 68.9242 62.0739 69.1987 61.7642 69.1611C61.467 69.1794 61.1895 68.9043 61.2108 68.5911C61.2106 67.9482 61.2107 67.3053 61.2107 66.6623C61.2108 65.8055 61.2109 64.9487 61.2103 64.0921C61.2037 63.8278 61.2878 63.5642 61.449 63.3597C61.4808 63.3196 61.5117 63.2778 61.5426 63.2359Z" fill="black"/>
<path d="M218.903 56H207.601V61.6529H218.903V56Z" fill="black"/>
<path d="M185 56V61.6529H190.672V73H196.302V61.6529H201.973V56H185Z" fill="black"/>
<path d="M201.973 72.9996H218.946V67.3466H207.603V61.6525L201.973 61.6529L201.973 72.9996Z" fill="black"/>
<path d="M233.358 60.291H225.039V62.6429H227.812V70.0288H230.585V62.6429H233.358V60.291Z" fill="black"/>
<path d="M236.468 62.5608C234.493 62.5608 233.065 63.8399 233.065 66.3569C233.065 68.5851 234.283 70.153 236.552 70.153C237.728 70.153 238.653 69.8642 239.577 69.3278L238.611 67.7186C237.854 68.0899 237.35 68.2137 236.678 68.2137C235.964 68.2137 235.502 67.8424 235.418 67.0584H239.787C239.787 66.9346 239.787 66.7695 239.787 66.5632C239.787 63.8812 238.527 62.5608 236.468 62.5608ZM235.418 65.5317C235.502 64.789 235.838 64.4176 236.426 64.4176C237.182 64.4176 237.434 64.789 237.56 65.5317H235.418Z" fill="black"/>
<path d="M244.617 68.1309C243.902 68.1309 243.566 67.5119 243.566 66.3566C243.566 65.2013 243.902 64.5411 244.533 64.5411C245.079 64.5411 245.331 64.8299 245.667 65.4901L247.431 64.1697C246.759 63.1382 245.961 62.5192 244.575 62.5192C242.18 62.5192 241.045 64.0459 241.045 66.3153C241.045 68.7911 242.348 70.1527 244.533 70.1527C245.835 70.1527 246.675 69.6576 247.516 68.4197L245.919 67.1818C245.457 67.8833 245.121 68.1309 244.617 68.1309Z" fill="black"/>
<path d="M253.44 62.5606C252.558 62.5606 252.054 62.8494 251.55 63.2208V59.8786L248.987 60.8689V70.029H251.55V65.8616C251.55 64.9538 251.886 64.7062 252.432 64.7062C252.936 64.7062 253.272 64.9538 253.272 65.9028V70.029H255.835V65.5727C255.835 63.6334 255.037 62.5606 253.44 62.5606Z" fill="black"/>
<path d="M261.968 67.8422C260.792 67.8422 260.288 66.6456 260.288 65.1601C260.288 63.6334 260.792 62.4781 261.926 62.4781C262.85 62.4781 263.186 63.0558 263.523 63.9635L266.001 63.0145C265.329 61.1577 264.363 60.1262 261.926 60.1262C259.279 60.1262 257.389 62.0242 257.389 65.1601C257.389 68.0485 258.943 70.1941 261.926 70.1941C264.279 70.1941 265.371 68.9562 266.043 67.6771L263.733 66.4805C263.229 67.3883 262.85 67.8422 261.968 67.8422Z" fill="black"/>
<path d="M270.203 63.2623V62.7259H267.64V70.0292H270.203V66.0268C270.203 65.1191 270.581 64.8302 271.211 64.8302C271.715 64.8302 272.093 65.0778 272.387 65.4492L272.976 62.8496C272.682 62.6846 272.303 62.5608 271.757 62.5608C271.127 62.5608 270.623 62.8496 270.203 63.2623Z" fill="black"/>
<path d="M278.479 66.8931C278.479 67.8008 278.143 68.0484 277.639 68.0484C277.135 68.0484 276.799 67.8008 276.799 66.8518V62.7256H274.236V67.1819C274.236 69.1212 275.034 70.194 276.631 70.194C277.513 70.194 278.017 69.9052 278.479 69.5338V70.029H281.042V62.7256H278.479V66.8931Z" fill="black"/>
<path d="M287.303 62.5608C286.421 62.5608 285.917 62.8496 285.412 63.221V62.7259H282.892V70.0292H285.454V65.8618C285.454 64.954 285.791 64.7064 286.337 64.7064C286.841 64.7064 287.177 64.954 287.177 65.903V70.0292H289.74V65.5729C289.74 63.6336 288.942 62.5608 287.303 62.5608Z" fill="black"/>
<path d="M294.78 68.1309C294.066 68.1309 293.73 67.5119 293.73 66.3566C293.73 65.2013 294.066 64.5411 294.696 64.5411C295.242 64.5411 295.494 64.8299 295.83 65.4901L297.595 64.1697C296.923 63.1382 296.124 62.5192 294.738 62.5192C292.343 62.5192 291.209 64.0459 291.209 66.3153C291.209 68.7911 292.511 70.1527 294.696 70.1527C295.998 70.1527 296.839 69.6576 297.679 68.4197L296.082 67.1818C295.62 67.8833 295.284 68.1309 294.78 68.1309Z" fill="black"/>
<path d="M303.605 62.5606C302.723 62.5606 302.219 62.8494 301.715 63.2208V59.8786L299.152 60.8689V70.029H301.715V65.8616C301.715 64.9538 302.051 64.7062 302.597 64.7062C303.101 64.7062 303.437 64.9538 303.437 65.9028V70.029H306V65.5727C306 63.6334 305.202 62.5606 303.605 62.5606Z" fill="black"/>
<path d="M15.6951 116.335L17.3782 116.069V100.705L15.5 100.464L15.5976 98.8H27.3547L27.062 103.455L24.7203 103.383L24.5739 100.464H20.9395V107.386H22.525L22.8909 105.795L24.5252 105.843V110.618H22.8909L22.5006 108.978H20.9151V116.311H24.5739L24.9154 113.127L27.3791 113.199L27.5742 118.047H15.622L15.6951 116.335Z" fill="black"/>
<path d="M28.6679 118.071L28.7411 116.648L30.0583 116.383V106.687L28.5216 106.542V105.095L32.3755 104.54L32.6682 105.36V105.915C33.5952 104.95 34.7172 104.371 36.1563 104.371C38.2541 104.371 39.8152 105.626 39.8152 108.11V116.359L41.2056 116.624L41.1324 118.047H36.5466V108.833C36.5466 107.507 36.0588 106.759 34.8392 106.759C34.4245 106.759 34.1318 106.831 33.8147 106.952C33.6195 107.121 33.4244 107.362 33.2537 107.579V116.407L34.644 116.672L34.5465 118.095H28.6679V118.071Z" fill="black"/>
<path d="M102.361 118.071L102.41 116.648L103.727 116.383V106.687L102.19 106.542V105.095L106.044 104.54L106.337 105.36V105.915C107.264 104.95 108.386 104.371 109.825 104.371C111.923 104.371 113.484 105.626 113.484 108.11V116.359L114.874 116.624L114.801 118.047H110.24V108.833C110.24 107.507 109.752 106.759 108.532 106.759C108.117 106.759 107.825 106.831 107.508 106.952C107.313 107.121 107.117 107.362 106.947 107.579V116.407L108.337 116.672L108.239 118.095H102.361V118.071Z" fill="black"/>
<path d="M48.4787 117.805C47.9421 118.022 46.9908 118.264 45.7468 118.264C44.1125 118.264 42.6002 117.54 42.6002 115.176V106.686L41.039 106.445L41.1122 104.757L42.8685 104.684L43.6246 102.104L45.8687 102.007V104.781H48.2836L48.1128 106.469L45.8931 106.711V115.201C45.8931 115.9 46.2834 116.358 47.0152 116.358H48.3323L48.4787 117.805Z" fill="black"/>
<path d="M139.778 118.071L139.827 116.672L141.071 116.383V106.687L139.607 106.542V105.095L143.608 104.54L143.876 105.481V105.794C144.925 105.023 146.34 104.516 148.047 104.516L148.633 105.023L148.218 108.689L146.023 108.616L145.803 106.663C145.291 106.735 144.803 106.88 144.388 107.169V116.407L145.779 116.696L145.681 118.095H139.778V118.071Z" fill="black"/>
<path d="M82.3298 118.071L82.403 116.672L83.647 116.383V106.687L82.1835 106.542V105.095L86.1838 104.54L86.4521 105.481V105.794C87.501 105.023 88.9157 104.516 90.6232 104.516L91.2086 105.023L90.7452 108.689L88.5499 108.616L88.3303 106.663C87.8181 106.735 87.3302 106.88 86.9156 107.169V116.407L88.3059 116.696L88.2084 118.095H82.3298V118.071Z" fill="black"/>
<path d="M49.4491 118.071L49.5223 116.672L50.7663 116.383V106.687L49.3028 106.542V105.095L53.3031 104.54L53.5714 105.481V105.794C54.6203 105.023 56.035 104.516 57.7181 104.516L58.3035 105.023L57.8889 108.689L55.6936 108.616L55.474 106.663C54.9618 106.735 54.4739 106.88 54.0593 107.169V116.407L55.4496 116.696L55.3521 118.095H49.4491V118.071Z" fill="black"/>
<path d="M62.0897 112.162C62.0897 114.477 63.1142 116.262 65.1388 116.262C66.1876 116.262 67.017 116.045 67.9927 115.587L68.5537 116.865C67.5536 117.661 66.0901 118.264 64.2606 118.264C60.6994 118.264 58.6504 115.225 58.6504 111.317C58.6504 107.989 60.1383 104.347 64.2119 104.347C67.7731 104.347 69.1147 107.603 69.1147 111.221L68.7732 112.089L62.0897 112.162ZM62.0409 110.618L66.1389 110.425C66.0657 108.809 65.7242 106.252 64.1143 106.252C63.724 106.252 63.4557 106.325 62.9679 106.566C62.3093 107.675 62.0409 109.677 62.0409 110.618Z" fill="black"/>
<path d="M118.774 112.162C118.774 114.477 119.798 116.262 121.823 116.262C122.872 116.262 123.701 116.045 124.677 115.587L125.238 116.865C124.238 117.661 122.774 118.264 120.945 118.264C117.384 118.264 115.335 115.225 115.335 111.317C115.335 107.989 116.823 104.347 120.896 104.347C124.457 104.347 125.799 107.603 125.799 111.221L125.457 112.089L118.774 112.162ZM118.725 110.618L122.823 110.425C122.75 108.809 122.408 106.252 120.799 106.252C120.408 106.252 120.14 106.325 119.652 106.566C118.993 107.675 118.725 109.677 118.725 110.618Z" fill="black"/>
<path d="M94.9725 112.162C94.9725 114.477 95.997 116.262 98.0215 116.262C99.0704 116.262 99.8997 116.045 100.875 115.587L101.436 116.865C100.436 117.661 98.9728 118.264 97.1434 118.264C93.5821 118.264 91.5332 115.225 91.5332 111.317C91.5332 107.989 93.0211 104.347 97.0946 104.347C100.656 104.347 101.997 107.603 101.997 111.221L101.656 112.089L94.9725 112.162ZM94.9237 110.618L99.0216 110.425C98.9484 108.809 98.6069 106.252 96.997 106.252C96.6068 106.252 96.3384 106.325 95.8506 106.566C95.192 107.675 94.8993 109.677 94.9237 110.618Z" fill="black"/>
<path d="M135.021 118.071L134.68 116.914C133.777 117.758 132.899 118.264 131.533 118.264C129.435 118.264 127.557 117.227 127.557 114.357V106.349L126.02 106.205V104.926L130.46 104.42L130.801 105.577V113.971C130.801 115.442 131.411 116.214 132.606 116.214C132.948 116.214 133.387 116.166 133.777 116.021C133.997 115.804 134.216 115.539 134.387 115.273V106.349L132.801 106.205V104.926L137.29 104.42L137.631 105.577V116.383L139.021 116.648L138.851 118.071H135.021Z" fill="black"/>
<path d="M75.7753 116.334C75.0679 116.334 74.5069 116.214 74.0678 115.973V107.459C74.2629 107.169 74.4825 106.904 74.702 106.663C75.1167 106.518 75.4826 106.47 75.9216 106.47C77.751 106.47 78.0681 108.303 78.0681 111.583C78.0681 114.743 77.5803 115.611 77.4583 115.973C76.9461 116.214 76.4095 116.334 75.7753 116.334ZM81.2391 111.004C81.2391 106.928 80.0195 104.371 76.9705 104.371C74.9459 104.371 73.9946 105.529 73.6043 106.011V105.553L73.2629 104.395L69.2869 104.95V106.349L70.8236 106.542V122.991L69.5064 123.257L69.4333 124.632H75.3118L75.4094 123.257L74.019 122.991V117.782C74.58 118.095 75.3606 118.288 76.2143 118.288C81.1903 118.288 81.2391 113.295 81.2391 111.004Z" fill="black"/>
<path d="M180.894 101.018H192.777C192.775 102.676 192.779 104.337 192.775 105.995C193.323 105.997 193.87 106 194.42 106C194.422 107.109 194.422 108.218 194.416 109.327C194.974 109.327 195.533 109.327 196.091 109.325C196.109 109.891 196.118 110.458 196.126 111.022C196.685 111.022 197.246 111.02 197.806 111.02C197.813 111.584 197.819 112.15 197.826 112.717C197.257 112.719 196.689 112.721 196.122 112.723C196.118 113.287 196.115 113.852 196.109 114.416C195.544 114.416 194.979 114.416 194.413 114.418C194.422 115.521 194.418 116.621 194.424 117.724C193.877 117.756 193.327 117.778 192.779 117.795C192.773 119.354 192.777 120.912 192.777 122.472H180.894C180.896 120.905 180.885 119.339 180.903 117.773C180.353 117.737 179.803 117.715 179.251 117.709C179.251 116.613 179.251 115.516 179.251 114.42C178.667 114.416 178.084 114.411 177.499 114.405V109.338C178.088 109.331 178.677 109.327 179.267 109.327C179.24 111.024 179.249 112.721 179.258 114.418C179.806 114.418 180.353 114.418 180.901 114.418C180.89 115.518 180.901 116.617 180.883 117.715C182.011 117.745 183.139 117.709 184.267 117.72C184.287 118.292 184.291 118.867 184.294 119.442C185.989 119.44 187.684 119.442 189.38 119.44C189.382 118.867 189.384 118.292 189.4 117.717C190.525 117.722 191.651 117.724 192.779 117.717C192.777 116.619 192.779 115.518 192.775 114.418C193.323 114.416 193.87 114.416 194.418 114.414C194.376 112.715 194.523 111.003 194.335 109.31C193.815 109.323 193.296 109.327 192.777 109.333C192.777 108.222 192.777 107.113 192.777 106.002C191.643 105.993 190.508 106 189.373 105.995C189.38 105.452 189.382 104.91 189.382 104.367C188.799 104.367 188.219 104.367 187.636 104.365C187.621 107.149 187.63 109.936 187.632 112.721C187.102 112.721 186.572 112.721 186.042 112.721C186.035 109.936 186.055 107.149 186.031 104.365C185.455 104.367 184.876 104.367 184.3 104.365C184.291 104.908 184.289 105.452 184.289 105.997C183.159 105.997 182.027 105.995 180.896 106.002C180.892 107.111 180.892 108.218 180.899 109.327C180.353 109.329 179.81 109.329 179.267 109.327C179.243 108.218 179.251 107.107 179.254 105.997C179.803 105.997 180.351 105.997 180.901 105.997C180.888 104.339 180.896 102.679 180.894 101.018Z" fill="black"/>
<path d="M201.977 107.083C202.616 107.081 203.256 107.081 203.898 107.085C203.891 108.323 203.9 109.561 203.887 110.798C205.751 110.809 207.612 110.801 209.476 110.805C209.483 109.563 209.474 108.323 209.481 107.081C210.12 107.081 210.76 107.081 211.4 107.085C211.391 110.191 211.391 113.298 211.4 116.404C210.76 116.409 210.12 116.409 209.481 116.409C209.476 115.179 209.481 113.95 209.479 112.721C207.615 112.721 205.751 112.719 203.887 112.723C203.898 113.95 203.893 115.179 203.895 116.406C203.249 116.415 202.605 116.413 201.961 116.387C201.996 113.285 201.966 110.183 201.977 107.083Z" fill="black"/>
<path d="M213.209 107.081C216.348 107.081 219.485 107.081 222.624 107.081C222.626 110.189 222.628 113.3 222.624 116.409C221.984 116.409 221.345 116.409 220.705 116.404C220.714 115.177 220.707 113.95 220.714 112.723C218.85 112.719 216.983 112.719 215.122 112.723C215.126 113.95 215.119 115.177 215.128 116.404C214.489 116.409 213.849 116.409 213.209 116.409C213.205 113.3 213.207 110.189 213.209 107.081ZM215.124 109.011C215.124 109.608 215.122 110.204 215.119 110.801C216.983 110.807 218.847 110.805 220.711 110.801C220.709 110.204 220.709 109.608 220.709 109.011C218.847 109.009 216.986 109.009 215.124 109.011Z" fill="black"/>
<path d="M224.422 107.085C227.565 107.083 230.708 107.07 233.851 107.091C233.845 107.731 233.845 108.37 233.84 109.009C231.341 109.012 228.842 109.009 226.345 109.009C226.34 110.833 226.34 112.656 226.345 114.48C228.842 114.48 231.341 114.478 233.84 114.48C233.845 115.121 233.845 115.763 233.847 116.404C230.706 116.411 227.563 116.411 224.422 116.404C224.43 113.298 224.43 110.191 224.422 107.085Z" fill="black"/>
<path d="M235.65 107.085C236.289 107.081 236.929 107.081 237.571 107.081C237.571 108.321 237.577 109.558 237.562 110.798C238.806 110.807 240.05 110.803 241.297 110.803C241.288 110.166 241.29 109.528 241.318 108.893C241.932 108.898 242.547 108.9 243.163 108.893C243.156 108.291 243.154 107.686 243.156 107.083C243.796 107.081 244.433 107.081 245.075 107.083C245.075 107.724 245.075 108.368 245.066 109.009C244.446 109.009 243.829 109.009 243.213 109.009C243.222 109.651 243.213 110.294 243.167 110.936C242.574 110.82 241.967 110.822 241.364 110.837C241.345 111.453 241.345 112.071 241.358 112.689C241.973 112.686 242.591 112.684 243.209 112.684C243.211 113.283 243.211 113.881 243.213 114.48C243.831 114.48 244.446 114.48 245.066 114.48C245.075 115.121 245.075 115.765 245.075 116.406C244.433 116.409 243.796 116.409 243.156 116.406C243.154 115.804 243.156 115.199 243.163 114.594C242.547 114.589 241.932 114.591 241.318 114.596C241.292 113.971 241.288 113.345 241.294 112.721C240.048 112.723 238.802 112.712 237.558 112.727C237.582 113.954 237.568 115.181 237.571 116.409C236.931 116.409 236.291 116.409 235.652 116.406C235.652 113.3 235.658 110.193 235.65 107.085Z" fill="black"/>
<path d="M246.878 107.085C250.019 107.078 253.162 107.078 256.303 107.085C256.303 107.726 256.299 108.37 256.283 109.011C253.806 109.007 251.329 109.009 248.851 109.011C248.851 109.608 248.849 110.204 248.847 110.801C250.087 110.807 251.326 110.803 252.568 110.803C252.573 111.44 252.577 112.079 252.586 112.716C251.34 112.725 250.093 112.716 248.847 112.723C248.849 113.309 248.849 113.892 248.851 114.478C251.331 114.48 253.81 114.478 256.288 114.48C256.299 115.121 256.301 115.763 256.303 116.404C253.162 116.413 250.021 116.406 246.88 116.406C246.878 113.3 246.882 110.193 246.878 107.085Z" fill="black"/>
<path d="M258.154 107.085C261.275 107.076 264.399 107.085 267.52 107.081C267.522 108.96 267.525 110.841 267.52 112.721C266.898 112.721 266.276 112.721 265.656 112.723C265.661 113.309 265.661 113.894 265.656 114.48C266.272 114.48 266.889 114.48 267.507 114.476C267.522 115.121 267.525 115.765 267.52 116.409C266.881 116.409 266.241 116.409 265.601 116.404C265.604 115.799 265.606 115.194 265.61 114.591C264.99 114.591 264.368 114.591 263.748 114.591C263.742 113.969 263.742 113.349 263.757 112.727C262.531 112.714 261.302 112.723 260.075 112.721C260.073 113.95 260.077 115.179 260.073 116.409C259.433 116.409 258.794 116.409 258.154 116.404C258.163 113.298 258.163 110.191 258.154 107.085ZM260.077 109.009C260.073 109.608 260.073 110.206 260.077 110.805C261.922 110.801 263.766 110.809 265.608 110.801C265.606 110.204 265.606 109.608 265.606 109.011C263.762 109.009 261.919 109.011 260.077 109.009Z" fill="black"/>
<path d="M269.382 107.083C272.525 107.083 275.666 107.074 278.807 107.085C278.801 110.191 278.801 113.298 278.807 116.404C278.148 116.409 277.489 116.409 276.829 116.406C276.834 113.944 276.827 111.479 276.834 109.014C274.987 109.007 273.141 109.007 271.294 109.014C271.307 111.479 271.299 113.944 271.301 116.406C270.661 116.409 270.022 116.409 269.382 116.406C269.384 113.298 269.384 110.189 269.382 107.083Z" fill="black"/>
<path d="M280.615 107.083C283.756 107.081 286.897 107.077 290.038 107.085C290.029 110.192 290.029 113.298 290.038 116.405C286.897 116.413 283.756 116.407 280.615 116.409C280.615 113.3 280.615 110.192 280.615 107.083ZM282.527 109.016C282.536 110.835 282.536 112.655 282.527 114.474C284.389 114.487 286.25 114.476 288.114 114.48C288.119 112.657 288.117 110.833 288.114 109.01C286.253 109.014 284.389 109.003 282.527 109.016Z" fill="black"/>
<path d="M291.839 107.081C294.976 107.081 298.115 107.081 301.254 107.081C301.256 110.189 301.256 113.3 301.254 116.409C298.115 116.409 294.978 116.409 291.839 116.409C291.835 113.3 291.835 110.189 291.839 107.081ZM293.754 109.011C293.751 110.833 293.756 112.652 293.749 114.473C295.613 114.486 297.475 114.476 299.339 114.48C299.341 112.659 299.337 110.835 299.341 109.014C297.48 109.005 295.616 109.011 293.754 109.011Z" fill="black"/>
<path d="M303.062 107.085C306.201 107.076 309.342 107.083 312.483 107.08C312.489 110.189 312.481 113.295 312.487 116.402C311.848 116.408 311.206 116.411 310.566 116.406C310.571 113.943 310.564 111.478 310.571 109.013C308.709 109.005 306.847 109.013 304.985 109.009C304.978 111.476 304.985 113.941 304.981 116.408C304.341 116.408 303.699 116.408 303.062 116.404C303.071 113.298 303.071 110.191 303.062 107.085Z" fill="black"/>
<path d="M184.3 104.365C184.876 104.367 185.455 104.367 186.031 104.365C186.055 107.149 186.035 109.936 186.042 112.721C186.572 112.721 187.102 112.721 187.632 112.721C187.63 109.936 187.621 107.149 187.636 104.365C188.219 104.367 188.799 104.367 189.382 104.367C189.382 104.91 189.38 105.452 189.373 105.995C190.508 106 191.643 105.993 192.777 106.002C192.777 107.113 192.777 108.222 192.777 109.333C193.296 109.327 193.815 109.323 194.335 109.31C194.523 111.003 194.376 112.715 194.418 114.414C193.87 114.416 193.323 114.416 192.775 114.418C192.779 115.518 192.777 116.619 192.779 117.717C191.651 117.724 190.525 117.722 189.4 117.717C189.384 118.292 189.382 118.867 189.38 119.44C187.684 119.442 185.989 119.44 184.294 119.442C184.291 118.867 184.287 118.292 184.267 117.72C183.139 117.709 182.011 117.745 180.883 117.715C180.901 116.617 180.89 115.518 180.901 114.418C180.353 114.418 179.806 114.418 179.258 114.418C179.249 112.721 179.24 111.024 179.267 109.327C179.81 109.329 180.353 109.329 180.899 109.327C180.892 108.218 180.892 107.111 180.896 106.002C182.027 105.995 183.159 105.997 184.289 105.997C184.289 105.452 184.291 104.908 184.3 104.365Z" fill="white"/>
</svg>
