<svg width="101" height="24" viewBox="0 0 101 24" fill="none" xmlns="http://www.w3.org/2000/svg">
<g clip-path="url(#clip0_4579_32471)">
<path fill-rule="evenodd" clip-rule="evenodd" d="M42.2339 7.24617C42.2339 7.24617 44.7496 8.5287 45.0532 8.78176C45.374 9.03482 45.2049 9.20375 45.2049 9.20375C45.2049 9.20375 45.087 9.372 44.7999 9.43957C44.5122 9.48991 44.5978 9.72642 44.5978 9.72642L44.564 15.7164C45.7459 16.8803 46.8602 16.2563 46.8602 16.2563C47.2824 16.1218 47.2321 15.7502 47.2321 15.7502C47.2321 15.7502 47.3169 10.1153 47.2824 9.92914C47.2486 9.72711 47.0803 9.72711 47.0803 9.72711C47.0803 9.72711 46.0336 9.06861 45.8646 8.95138C45.6783 8.83347 45.8811 8.64799 45.8811 8.64799C45.8811 8.64799 47.6536 7.41648 47.9076 7.17997C48.1608 6.9607 48.3636 7.09516 48.3636 7.09516C48.3636 7.09516 51.2843 8.73211 51.6217 8.98517C51.9591 9.23823 51.7907 9.32235 51.7907 9.32235L50.9634 10.1491C50.7944 10.318 50.8786 10.4697 50.8786 10.4697L50.8448 16.0039C50.6253 17.4209 48.3967 17.6243 48.3967 17.6243C45.7121 17.6581 44.4632 16.5107 44.4632 16.5107C43.3993 15.8522 42.167 16.3073 42.167 16.3073C40.5973 16.8472 40.4787 17.8602 40.4787 17.8602C40.4276 18.5862 41.2383 18.94 41.2383 18.94C42.2346 19.5812 43.6863 19.1758 43.6863 19.1758C44.9186 18.7545 46.8264 18.1132 46.8264 18.1132C48.0249 17.8602 48.9701 18.0622 48.9701 18.0622C50.0506 18.2994 50.4729 18.8055 50.4729 18.8055C51.1649 19.5137 51.1145 20.4245 51.1145 20.4245C51.1649 22.4166 48.7169 23.091 48.7169 23.091C47.6198 23.3102 47.3163 23.0572 47.3163 23.0572C46.5393 22.8876 47.3666 22.8041 47.3666 22.8041C47.3666 22.8041 45.948 22.8876 47.4846 22.82C49.0212 22.7703 49.1902 22.0284 49.1902 22.0284C49.7477 21.032 48.8866 20.8638 48.8866 20.8638C47.7047 20.6955 46.4221 21.6567 46.4221 21.6567C43.5518 22.9386 41.3742 21.876 41.3742 21.876C39.1456 21.0155 39.4327 19.362 39.4327 19.362C39.483 17.2196 40.834 16.3763 40.834 16.3763L40.7498 9.74504C40.6822 9.5761 40.5132 9.52577 40.5132 9.52577C40.5132 9.52577 39.5845 9.15411 39.4327 8.95207C39.2974 8.74935 39.5168 8.66523 39.5168 8.66523L41.6613 7.24755C41.9131 6.89244 42.2339 7.24617 42.2339 7.24617ZM0.634327 6.23393C0.313491 6.01466 0.668135 5.89675 0.668135 5.89675L3.89305 3.53441H12.4183C14.2585 3.70265 14.1067 6.06499 14.1067 6.06499L14.0729 14.7704C11.0846 15.344 9.64946 17.876 9.64946 17.876C6.86337 17.0831 2.08602 17.7912 2.08602 17.7912C1.66376 17.825 1.95079 17.5044 1.95079 17.5044C3.60533 14.6021 6.77919 14.6869 6.77919 14.6869C6.98411 14.6828 7.18489 14.6883 7.38015 14.7007L7.39671 6.32219L0.634327 6.23393ZM4.88868 6.70626C5.5131 6.41941 5.39511 6.84141 5.39511 6.84141V11.6833C5.34475 13.725 3.74057 14.8393 3.74057 14.8393C3.26794 15.4806 1.4616 16.2225 1.4616 16.2225C0.837178 16.4583 1.20838 15.8509 1.20838 15.8509C1.79899 14.9745 1.79899 14.3491 1.79899 14.3491V8.5287C1.79899 8.35977 1.86661 8.29219 1.86661 8.29219L4.88868 6.70626ZM7.6658 14.7249C9.14165 14.8731 10.2242 15.3958 10.2242 15.3958L10.2021 11.6523L10.1794 11.6695C10.1759 11.6654 8.99468 10.107 7.67132 11.7268L7.6658 14.7249ZM10.1994 11.273L10.1904 9.70297C9.73847 10.1257 8.68489 10.8366 7.67477 9.52025L7.67132 11.2979C8.78355 10.1698 9.78401 10.8724 10.1994 11.273ZM10.1876 9.29339L10.1725 6.67248C10.2904 6.23393 9.68327 6.35184 9.68327 6.35184L7.68167 6.32564L7.67684 9.01413C8.80908 10.8897 10.0717 9.43474 10.1876 9.29339ZM33.4879 5.18791C33.4879 5.18791 37.202 3.99019 37.6746 3.87228C38.1638 3.75437 38.1307 3.99019 38.1307 3.99019C38.1307 3.99019 38.03 14.5518 38.1141 14.9234C38.1983 15.2951 38.3674 15.1944 38.3674 15.1944C38.3674 15.1944 39.2284 15.8019 39.414 15.8853C39.6169 15.9701 39.5155 16.1722 39.5155 16.1722L37.4221 17.7926C37.4221 17.7926 34.0116 16.2908 33.7418 16.1225C33.4044 15.8853 33.6238 15.7509 33.6238 15.7509L34.2317 15.1434C34.2317 15.1434 34.3324 6.50492 34.1641 6.04914C33.995 5.59336 33.4548 5.40787 33.4548 5.40787C33.3361 5.2217 33.4879 5.18791 33.4879 5.18791ZM29.3184 6.97656C29.4364 7.26341 29.74 7.21307 29.74 7.21307C31.0909 6.67316 31.6312 5.39063 31.6312 5.39063C31.9686 4.12534 31.1751 3.78816 31.1751 3.78816C30.4658 3.36616 29.9428 3.70334 29.9428 3.70334C29.1321 4.14189 28.9127 4.98588 28.9127 4.98588C28.7105 6.09947 29.3184 6.97656 29.3184 6.97656ZM28.7105 7.55025C28.7105 7.55025 26.5158 8.90036 26.3467 9.15342C26.1777 9.40648 26.3136 9.52508 26.3136 9.52508C26.3136 9.52508 27.2589 10.1153 27.5121 10.2167C27.7819 10.3008 27.6804 10.436 27.6804 10.436L27.748 14.8228C27.7819 14.9414 27.748 15.2441 27.748 15.2441C27.748 15.2441 27.3762 15.5482 27.174 15.7171C26.938 15.9191 27.1229 16.1225 27.1229 16.1225L30.5169 17.8264C30.5169 17.8264 32.8124 16.1729 33.0153 16.0887C33.2174 16.0039 33.0153 15.8357 33.0153 15.8357C33.0153 15.8357 32.019 15.262 31.8506 15.1772C31.6822 15.0924 31.7499 14.9241 31.7499 14.9241C31.7499 14.9241 31.6146 10.587 31.7161 10.216C31.8002 9.86157 31.9182 9.97948 31.9182 9.97948C31.9182 9.97948 32.2218 9.89536 32.4923 9.72642C32.7455 9.55749 32.5095 9.40579 32.5095 9.40579C32.5095 9.40579 29.3522 7.75297 29.1163 7.55025C28.8789 7.34753 28.7105 7.55025 28.7105 7.55025ZM14.7228 14.8559C14.7145 14.8221 14.9843 17.4037 18.2934 17.8257L20.4882 16.055C20.4882 16.055 20.6062 15.8515 20.7752 16.0198L24.4893 17.8257L26.7517 16.055C26.7517 16.055 26.8532 15.8515 26.6841 15.6495L25.1137 14.6028V10.3001C25.1137 10.3001 25.0972 10.0981 25.2317 10.0643L25.8396 9.57541C25.8396 9.57541 25.941 9.40647 25.7389 9.1872C25.5526 8.95138 21.8557 7.12894 21.8557 7.12894C21.8557 7.12894 21.7205 6.92691 21.3824 7.16273C21.3824 7.16273 17.3474 8.78245 15.7605 10.8573C15.7612 10.8573 14.4951 11.6668 14.7228 14.8559ZM17.8884 13.4727C17.9898 13.6575 17.2129 12.3756 17.5848 10.9752C17.5848 10.9752 17.6359 9.74366 19.0703 9.11963L21.0119 10.3849L20.9781 15.3785C20.9781 15.3785 20.7248 15.8012 20.1004 15.5144C20.1004 15.5144 18.4962 14.7214 17.8884 13.4727ZM89.3468 7.68471C89.3468 7.68471 87.1527 9.01758 86.983 9.28788C86.8147 9.54094 86.9492 9.65885 86.9492 9.65885C86.9492 9.65885 87.8951 10.2491 88.1484 10.3339C88.4181 10.4187 88.3167 10.5697 88.3167 10.5697L88.3843 14.9565C88.4181 15.0751 88.3843 15.3778 88.3843 15.3778C88.3843 15.3778 88.0124 15.6647 87.8103 15.8343C87.5743 16.0363 87.7606 16.2384 87.7606 16.2384L91.1539 17.9594C91.1539 17.9594 93.4501 16.3059 93.6522 16.2046C93.8544 16.1212 93.6522 15.9515 93.6522 15.9515C93.6522 15.9515 92.6725 15.3778 92.4876 15.2944C92.3178 15.2096 92.3855 15.0413 92.3855 15.0413C92.3855 15.0413 92.2509 10.7049 92.3517 10.3339C92.4365 9.99672 92.5552 10.0981 92.5552 10.0981C92.5552 10.0981 92.8581 10.0133 93.1292 9.84502C93.3825 9.67608 93.1451 9.54162 93.1451 9.54162C93.1451 9.54162 89.9878 7.88812 89.7518 7.6854C89.5324 7.48268 89.3468 7.68471 89.3468 7.68471ZM55.7833 6.25048C55.2603 5.96363 55.6322 5.82849 55.6322 5.82849L58.2651 4.14119C58.3997 4.02328 58.5183 4.19222 58.5183 4.19222L60.916 5.59266C60.916 5.59266 64.1568 3.87159 64.3769 3.73713C64.5114 3.65232 64.6301 3.77092 64.6301 3.77092L67.3658 5.28927L70.1174 3.5682C70.4203 3.31514 70.5052 3.48338 70.5052 3.48338L73.7301 5.37339C73.9999 5.54233 73.8812 5.59266 73.8812 5.59266V14.3332C73.9999 15.4116 74.912 15.835 74.912 15.835C75.1652 16.037 75.0465 16.1894 75.0465 16.1894L72.564 17.9601C70.4203 17.2341 70.2181 15.4971 70.2181 15.4971V7.1448C70.1671 6.85796 69.9649 6.79038 69.9649 6.79038L68.3076 5.9464L68.32 9.65816H70.1002L68.3283 12.2108L68.3394 15.2834L69.5778 16.1212C69.7462 16.3232 69.4771 16.357 69.4771 16.357L66.9097 17.9594L63.0949 15.935C62.7402 15.6978 63.01 15.5633 63.01 15.5633L63.8373 15.0407V12.3577H62.0206L62.0275 15.8019L62.6395 16.1887C62.8258 16.3908 62.6057 16.5252 62.6057 16.5252L60.0563 17.9594L56.7306 16.2046C56.4436 16.0184 56.7465 15.8681 56.7465 15.8681L57.6924 15.3282V7.60059L55.8688 6.28495L55.7833 6.25048ZM68.0785 5.84228C67.5749 5.68575 67.6528 5.99811 67.6528 5.99811L67.6866 9.38923V9.65954H68.0923L68.0785 5.84228ZM68.1006 12.3584H67.6866V14.8393C67.7025 14.9069 67.906 14.9903 67.906 14.9903L68.1096 15.1289L68.1006 12.3584ZM62.0199 11.8785L63.5158 9.65885H63.8366V7.1448C63.7869 7.01035 63.6006 6.8752 63.6006 6.8752L62.0103 6.04845L62.0199 11.8785ZM61.7819 5.99397C61.3155 6.00432 61.2886 6.31874 61.2886 6.31874L61.2534 15.3289C61.2534 15.3785 61.4059 15.4123 61.4059 15.4123L61.7977 15.6599L61.7819 5.99397ZM75.3625 14.8559C75.3543 14.8221 75.624 17.4037 78.9338 17.8257L81.1279 16.055C81.1279 16.055 81.2466 15.8515 81.415 16.0198L85.1291 17.8257L87.3915 16.055C87.3915 16.055 87.4922 15.8515 87.3239 15.6495L85.7542 14.6028V10.3001C85.7542 10.3001 85.7383 10.0981 85.8728 10.0643L86.4807 9.57541C86.4807 9.57541 86.5815 9.40647 86.38 9.1872C86.1937 8.95138 82.4961 7.12894 82.4961 7.12894C82.4961 7.12894 82.3616 6.92691 82.0228 7.16273C82.0228 7.16273 77.9879 8.78245 76.401 10.8573C76.4003 10.8573 75.1349 11.6668 75.3625 14.8559ZM78.5281 13.4727C78.6289 13.6575 77.8526 12.3756 78.2252 10.9752C78.2252 10.9752 78.2749 9.74366 79.71 9.11963L81.6516 10.3849L81.6178 15.3785C81.6178 15.3785 81.3646 15.8012 80.7395 15.5144C80.7395 15.5144 79.136 14.7214 78.5281 13.4727ZM94.1249 5.18791C94.1249 5.18791 97.821 3.99019 98.3116 3.87228C98.7836 3.75437 98.767 3.99019 98.767 3.99019C98.767 3.99019 98.6662 14.6704 98.7497 15.042C98.8346 15.4123 99.003 15.3289 99.003 15.3289C99.003 15.3289 99.864 15.9364 100.05 16.0198C100.252 16.1046 100.151 16.3066 100.151 16.3066L98.0584 17.927C98.0584 17.927 94.6479 16.4252 94.3781 16.2398C94.04 16.0205 94.2594 15.8695 94.2594 15.8695L94.8673 15.2785C94.8673 15.2785 94.968 6.48837 94.7997 6.03259C94.6313 5.57681 94.0911 5.40856 94.0911 5.40856C93.9731 5.20446 94.1249 5.18791 94.1249 5.18791ZM89.9547 7.11171C90.0734 7.39856 90.3763 7.34753 90.3763 7.34753C91.7279 6.79038 92.2682 5.50854 92.2682 5.50854C92.6049 4.25979 91.8114 3.92262 91.8114 3.92262C91.1028 3.48407 90.5798 3.8378 90.5798 3.8378C89.7684 4.27635 89.5504 5.12034 89.5504 5.12034C89.3468 6.23393 89.9547 7.11171 89.9547 7.11171Z" fill="black" fill-opacity="0.4"/>
</g>
<defs>
<clipPath id="clip0_4579_32471">
<rect width="100" height="24" fill="white" transform="translate(0.5)"/>
</clipPath>
</defs>
</svg>
